<?xml version="1.0" standalone="no"?><!DOCTYPE svg PUBLIC "-//W3C//DTD SVG 1.1//EN" "http://www.w3.org/Graphics/SVG/1.1/DTD/svg11.dtd"><svg t="1506154977703" class="icon" style="" viewBox="0 0 1024 1024" version="1.1" xmlns="http://www.w3.org/2000/svg" p-id="15313" xmlns:xlink="http://www.w3.org/1999/xlink" width="30" height="30"><defs><style type="text/css"></style></defs><path d="M864 320v576c0 70.7-57.3 128-128 128H288c-70.7 0-128-57.3-128-128V320c-35.3 0-64-28.7-64-64v-64c0-35.4 28.7-64 64-64h192V64c0-35.3 28.7-64 64-64h192c35.3 0 64 28.6 64 64v64h192c35.3 0 64 28.6 64 64v64c0 35.3-28.7 64-64 64z m-640 0v576c0 35.3 28.6 64 64 64h448c35.3 0 64-28.7 64-64V320H224z m192-192V96c0-17.7 14.3-32 32-32h128c17.7 0 32 14.3 32 32v32H416m416 64H192c-17.7 0-32 14.3-32 32s14.3 32 32 32h640c17.7 0 32-14.3 32-32s-14.3-32-32-32zM352 448c17.7 0 32 14.3 32 32v384c0 17.7-14.3 32-32 32s-32-14.3-32-32V480c0-17.7 14.3-32 32-32z m160 0c17.7 0 32 14.3 32 32v384c0 17.7-14.3 32-32 32s-32-14.3-32-32V480c0-17.7 14.3-32 32-32z m160 0c17.7 0 32 14.3 32 32v384c0 17.7-14.3 32-32 32s-32-14.3-32-32V480c0-17.7 14.3-32 32-32z" fill="#cdcdcd" p-id="15314"></path></svg>