<?xml version="1.0" standalone="no"?><!DOCTYPE svg PUBLIC "-//W3C//DTD SVG 1.1//EN" "http://www.w3.org/Graphics/SVG/1.1/DTD/svg11.dtd"><svg t="1506152098805" class="icon" style="" viewBox="0 0 1024 1024" version="1.1" xmlns="http://www.w3.org/2000/svg" p-id="16953" xmlns:xlink="http://www.w3.org/1999/xlink" width="30" height="30"><defs><style type="text/css"></style></defs><path d="M509.904 71.849c-244.031 0-442.655 198.624-442.655 442.655s198.508 442.655 442.655 442.655c244.031 0 442.655-198.508 442.655-442.655 0-244.031-198.624-442.655-442.655-442.655z m0 829.89c-213.526 0-387.236-173.709-387.236-387.236s173.709-387.236 387.236-387.236c213.526 0 387.236 173.709 387.236 387.236 0 213.526-173.709 387.236-387.236 387.236z m89.533-367.327c42.38-28.524 70.206-76.609 70.206-131.213 0-87.553-71.487-158.458-159.739-158.458-88.252 0-159.739 70.905-159.739 158.458 0 54.604 27.825 102.689 70.206 131.213-81.499 34.579-138.665 114.797-138.665 208.287h45.639c0-100.011 81.732-181.044 182.558-181.044s182.558 81.034 182.558 181.044H738.1c0-93.491-57.166-173.709-138.665-208.287z m-89.533-18.046c-62.988 0-114.098-50.646-114.098-113.167s51.111-113.167 114.098-113.167 114.098 50.646 114.098 113.167-51.111 113.167-114.098 113.167z" fill="#ffffff" p-id="16954"></path></svg>