<?xml version="1.0" standalone="no"?><!DOCTYPE svg PUBLIC "-//W3C//DTD SVG 1.1//EN" "http://www.w3.org/Graphics/SVG/1.1/DTD/svg11.dtd"><svg t="1506070720374" class="icon" style="" viewBox="0 0 1024 1024" version="1.1" xmlns="http://www.w3.org/2000/svg" p-id="2333" xmlns:xlink="http://www.w3.org/1999/xlink" width="16" height="16"><defs><style type="text/css"></style></defs><path d="M128.259664 256.17345l85.275175 0 0 85.275175-85.275175 0L128.259664 256.17345z" p-id="2334" fill="#ffffff"></path><path d="M341.448114 256.17345l554.291199 0 0 85.275175L341.448114 341.448626 341.448114 256.17345z" p-id="2335" fill="#ffffff"></path><path d="M128.259664 469.361901l85.275175 0 0 85.276199-85.275175 0L128.259664 469.361901z" p-id="2336" fill="#ffffff"></path><path d="M341.448114 469.361901l554.291199 0 0 85.276199L341.448114 554.638099 341.448114 469.361901z" p-id="2337" fill="#ffffff"></path><path d="M128.259664 682.551374l85.275175 0 0 85.275175-85.275175 0L128.259664 682.551374z" p-id="2338" fill="#ffffff"></path><path d="M341.448114 682.551374l554.291199 0 0 85.275175L341.448114 767.82655 341.448114 682.551374z" p-id="2339" fill="#ffffff"></path></svg>