<?xml version="1.0" standalone="no"?><!DOCTYPE svg PUBLIC "-//W3C//DTD SVG 1.1//EN" "http://www.w3.org/Graphics/SVG/1.1/DTD/svg11.dtd"><svg t="1506154857214" class="icon" style="" viewBox="0 0 1024 1024" version="1.1" xmlns="http://www.w3.org/2000/svg" p-id="12688" xmlns:xlink="http://www.w3.org/1999/xlink" width="30" height="30"><defs><style type="text/css"></style></defs><path d="M928 47.264 96.032 47.264C43.232 47.264 0 90.528 0 143.424l0 623.712c0 52.896 43.232 80.192 96.032 80.192L480 847.328c52.8 0 126.56 39.392 163.904 76.8l56.224 59.968c14.496 14.528 27.968 23.328 39.04 23.328 17.44 0 28.832-23.616 28.832-56 0-52.896 43.232-104.096 96.032-104.096L928 847.328c52.8 0 96-27.296 96-80.192L1024 143.424C1024 90.528 980.8 47.264 928 47.264zM960 767.168c0 17.376-14.656 17.632-32 17.632l-63.968 0c-70.656 0-130.752 53.344-151.904 117.056l-23.008-26.656c-49.376-49.472-139.296-90.4-209.12-90.4L96.032 784.8c-17.376 0-32-0.256-32-17.632L64.032 143.424c0-17.376 14.624-32.064 32-32.064L928 111.36c17.376 0 32 14.688 32 32.064L960 767.168z" p-id="12689" fill="#cdcdcd"></path><path d="M241.728 337.088l320 0c17.696 0 32-14.368 32-32.064 0-17.728-14.304-32.096-44.384-32.096l-320 0c-5.28 0-19.616 14.368-19.616 32.096C209.728 322.72 224.064 337.088 241.728 337.088" p-id="12690" fill="#cdcdcd"></path><path d="M784.032 433.28 240 433.28c-17.664 0-32 14.336-32 32.064s14.336 32.064 32 32.064l544.032 0c17.664 0 31.968-14.336 31.968-32.064S801.696 433.28 784.032 433.28" p-id="12691" fill="#cdcdcd"></path><path d="M784.032 561.568 240 561.568c-17.664 0-32 14.336-32 32.064 0 17.696 14.336 32.064 32 32.064l544.032 0c17.664 0 31.968-14.368 31.968-32.064C816 575.904 801.696 561.568 784.032 561.568" p-id="12692" fill="#cdcdcd"></path></svg>