<?xml version="1.0" standalone="no"?><!DOCTYPE svg PUBLIC "-//W3C//DTD SVG 1.1//EN" "http://www.w3.org/Graphics/SVG/1.1/DTD/svg11.dtd"><svg t="1506153834663" class="icon" style="" viewBox="0 0 1163 1024" version="1.1" xmlns="http://www.w3.org/2000/svg" p-id="8450" xmlns:xlink="http://www.w3.org/1999/xlink" width="34.072265625" height="30"><defs><style type="text/css"></style></defs><path d="M814.621 0c-23.273 0-41.89 9.31-46.545 32.582-4.655 18.618 13.963 41.89 32.581 46.545 74.473 13.964 223.419 37.237 260.655 251.346 4.655 23.272 23.273 46.545 46.545 37.236 18.619-4.654 37.237-13.964 27.928-65.164C1098.548 93.091 930.985 9.31 814.621 0m69.818 316.51c-9.309-37.237-46.545-79.128-88.436-83.783-13.964 0-23.273 4.655-27.927 18.618-4.655 13.964 4.654 27.928 18.618 32.582 27.927 4.655 41.89 27.928 46.545 46.546 0 0 4.655 13.963 18.618 18.618 13.964 4.654 37.237-4.655 32.582-32.582" fill="#E79017" p-id="8451"></path><path d="M1000.803 335.127c-13.964-97.745-83.782-176.872-186.182-195.49-32.582-4.655-46.545 18.618-46.545 37.236s13.963 32.582 37.236 37.236c65.164 18.618 107.055 46.546 121.018 121.018 4.655 23.273 23.273 37.237 37.237 37.237 23.272 0 37.236-13.964 37.236-37.237z" fill="#E79017" p-id="8452"></path><path d="M782.039 493.382h-13.963s0-4.655 4.654-13.964c13.964-27.927 32.582-88.436-9.309-121.018-23.273-23.273-134.982-37.236-246.69 37.236-4.655 4.655-13.964 13.964-18.619 9.31-4.655 0-4.655-9.31-4.655-18.619-4.654-60.509 41.891-214.109-79.127-200.145C284.003 209.455 107.13 409.6 60.585 507.345c-181.528 344.437 79.127 484.073 330.472 493.382 274.619 9.31 549.237-144.29 586.473-349.09 23.273-134.982-139.636-162.91-195.49-158.255m32.581 214.109c-13.964 134.982-209.454 242.036-423.564 237.382-195.49-4.655-330.472-107.055-307.2-223.418s181.528-214.11 372.364-223.419c204.8-13.963 372.364 79.128 358.4 209.455" fill="#D7282A" p-id="8453"></path><path d="M423.639 605.09c-93.09 4.656-176.872 79.129-190.836 162.91-9.31 88.436 51.2 162.91 148.945 162.91s190.837-74.474 200.146-172.22c9.309-88.435-60.51-158.254-158.255-153.6z m-74.472 256c-32.582 0-51.2-23.272-46.546-55.854 0-32.581 27.927-60.509 60.51-60.509 32.581 0 51.2 23.273 51.2 55.855-4.655 32.582-37.237 60.509-65.164 60.509zM423.639 768c-9.309 0-18.618-9.31-13.963-18.618 0-9.31 9.309-18.618 18.618-18.618s18.618 9.309 13.963 18.618c0 13.963-9.309 18.618-18.618 18.618z" fill="#050001" p-id="8454"></path></svg>