<?xml version="1.0" standalone="no"?><!DOCTYPE svg PUBLIC "-//W3C//DTD SVG 1.1//EN" "http://www.w3.org/Graphics/SVG/1.1/DTD/svg11.dtd"><svg t="1506156725350" class="icon" style="" viewBox="0 0 1024 1024" version="1.1" xmlns="http://www.w3.org/2000/svg" p-id="16977" xmlns:xlink="http://www.w3.org/1999/xlink" width="30" height="30"><defs><style type="text/css"></style></defs><path d="M523.164782 959.654506c-122.582873 0-237.81943-47.727001-324.499605-134.402059C111.990119 738.573295 64.263118 623.331621 64.263118 500.749772c0-100.779288 32.367175-195.870016 93.571119-275.02582 29.326932-37.923728 64.427358-70.961168 104.360859-98.231255 40.250726-27.484981 84.528162-48.485271 131.537825-62.316278 8.595772-2.553149 17.860786 0.311085 23.593348 7.207146 5.730515 6.892991 6.763031 16.518209 2.690272 24.489764-28.879748 56.276724-42.314735 109.913319-42.314735 168.875199 0 209.842239 170.71715 380.552226 380.559389 380.552226 58.96188 0 112.599498-13.429871 168.875199-42.309618 7.967462-4.072759 17.59268-3.044336 24.488741 2.686179 6.89606 5.731538 9.714246 15.000646 7.208169 23.597441-13.878079 47.00864-34.831296 91.286076-62.321394 131.536802-27.26497 39.933501-60.307527 75.033927-98.226139 104.360859-79.155804 61.199851-174.292582 93.571119-275.030937 93.571119L523.164782 959.654506zM358.411461 125.346823C207.351 190.038194 109.035834 335.279113 109.035834 500.749772c0 228.330312 185.79659 414.132018 414.128949 414.132018 165.476799 0 310.712601-98.361215 375.409089-249.374604-45.849234 17.149589-92.14156 25.51921-140.359748 25.51921-113.62792 0-220.406852-44.234457-300.728202-124.551714-80.316234-80.319304-124.598786-187.141214-124.598786-300.768111C332.888158 217.48736 341.304851 171.190941 358.411461 125.346823L358.411461 125.346823zM358.411461 125.346823" p-id="16978" fill="#bfbfbf"></path></svg>