<?xml version="1.0" standalone="no"?><!DOCTYPE svg PUBLIC "-//W3C//DTD SVG 1.1//EN" "http://www.w3.org/Graphics/SVG/1.1/DTD/svg11.dtd"><svg t="1506156674082" class="icon" style="" viewBox="0 0 1024 1024" version="1.1" xmlns="http://www.w3.org/2000/svg" p-id="16042" xmlns:xlink="http://www.w3.org/1999/xlink" width="30" height="30"><defs><style type="text/css"></style></defs><path d="M951.64416 417.81248l-45.34272-11.3664c-9.35936-34.89792-23.22432-67.95264-40.93952-98.5088l24.14592-40.18176c7.39328-14.37696 12.26752-32.1536 0-44.42112l-88.82176-88.82176c-5.5296-5.55008-12.32896-7.72096-19.3536-7.72096-8.6016 0-17.55136 3.25632-25.06752 7.72096l-40.46848 24.2688c-30.43328-17.6128-63.36512-31.39584-98.16064-40.71424l-11.42784-45.69088C601.31328 56.97536 592.15872 40.96 574.79168 40.96l-125.60384 0c-17.32608 0-27.48416 16.01536-31.41632 31.41632l-11.40736 45.69088c-34.79552 9.3184-67.72736 23.10144-98.18112 40.71424l-40.448-24.2688c-7.4752-4.46464-16.44544-7.72096-25.04704-7.72096-7.04512 0-13.84448 2.1504-19.3536 7.72096l-88.82176 88.82176c-12.24704 12.26752-7.39328 30.04416 0 44.42112l24.12544 40.18176c-17.73568 30.53568-31.62112 63.5904-40.93952 98.5088l-45.32224 11.3664C56.97536 421.72416 40.96 431.86176 40.96 449.2288l0 125.60384c0 17.34656 16.01536 26.50112 31.41632 31.39584l45.32224 11.34592c9.3184 34.9184 23.20384 67.95264 40.93952 98.5088l-24.12544 40.20224c-8.0896 13.66016-12.26752 32.13312 0 44.42112l88.82176 88.82176c5.38624 5.40672 11.89888 7.4752 18.69824 7.4752 8.62208 0 17.69472-3.33824 25.72288-7.4752l40.448-24.2688c30.47424 17.57184 63.3856 31.39584 98.18112 40.67328l11.40736 45.71136C421.70368 967.04512 431.86176 983.04 449.18784 983.04l125.60384 0c17.34656 0 26.50112-15.99488 31.41632-31.39584l11.42784-45.71136c34.77504-9.29792 67.72736-23.10144 98.16064-40.67328l40.46848 24.2688c8.02816 4.13696 17.14176 7.4752 25.72288 7.4752 6.77888 0 13.25056-2.08896 18.69824-7.4752l88.80128-88.82176c12.288-12.288 8.11008-30.76096 0-44.42112l-24.12544-40.20224c17.7152-30.53568 31.58016-63.56992 40.93952-98.5088l45.34272-11.34592C967.02464 601.31328 983.04 592.15872 983.04 574.81216l0-125.60384C983.04 431.86176 967.02464 421.72416 951.64416 417.81248zM940.21632 564.89984c-0.18432 0.06144-0.32768 0.14336-0.49152 0.16384l-43.80672 10.9568c-15.09376 3.76832-26.95168 15.44192-30.96576 30.43328-8.27392 30.8224-20.60288 60.43648-36.61824 88.10496-7.86432 13.47584-7.72096 30.16704 0.3072 43.54048l23.59296 39.28064-74.81344 74.81344c-0.16384-0.06144-0.3072-0.14336-0.45056-0.22528l-39.1168-23.47008c-6.79936-4.05504-14.37696-6.10304-22.03648-6.10304-7.35232 0-14.76608 1.90464-21.4016 5.7344-27.68896 15.95392-57.20064 28.22144-87.83872 36.41344-15.01184 3.9936-26.7264 15.85152-30.47424 30.98624l-11.03872 44.17536c-0.04096 0.16384-0.1024 0.3072-0.16384 0.49152l-105.79968 0-11.1616-44.70784c-3.7888-15.09376-15.44192-26.95168-30.49472-30.96576-30.63808-8.192-60.19072-20.45952-87.87968-36.41344-6.61504-3.85024-13.98784-5.7344-21.36064-5.7344-7.65952 0-15.2576 2.048-22.03648 6.10304l-39.09632 23.47008c-0.14336 0.08192-0.28672 0.16384-0.47104 0.22528l-74.77248-74.81344 23.552-39.30112c8.02816-13.35296 8.15104-30.04416 0.34816-43.52-16.05632-27.68896-28.38528-57.30304-36.63872-88.10496C155.0336 591.4624 143.17568 579.7888 128.08192 576.02048l-43.80672-10.9568c-0.16384-0.02048-0.34816-0.12288-0.512-0.16384l0-105.82016 44.31872-11.0592c15.07328-3.7888 26.95168-15.44192 30.96576-30.47424 8.23296-30.78144 20.56192-60.39552 36.63872-88.08448 7.82336-13.49632 7.68-30.18752-0.32768-43.52L172.032 247.05024c-0.06144-0.14336-0.14336-0.3072-0.22528-0.43008l74.81344-74.81344 39.5264 23.71584c6.77888 4.05504 14.39744 6.10304 22.03648 6.10304 7.3728 0 14.76608-1.92512 21.4016-5.7344 27.648-15.9744 57.20064-28.24192 87.83872-36.39296 15.03232-4.03456 26.70592-15.872 30.49472-30.98624l11.1616-44.70784 105.79968 0c0.06144 0.18432 0.12288 0.32768 0.16384 0.47104l11.03872 44.21632c3.76832 15.09376 15.4624 26.9312 30.47424 30.98624 30.63808 8.15104 60.17024 20.41856 87.83872 36.39296 6.63552 3.82976 14.0288 5.7344 21.4016 5.7344 7.63904 0 15.23712-2.048 22.03648-6.10304l39.5264-23.71584 74.83392 74.81344c-0.08192 0.14336-0.16384 0.3072-0.24576 0.45056l-23.32672 38.83008c-8.02816 13.37344-8.13056 30.06464-0.3072 43.56096 16.01536 27.66848 28.34432 57.28256 36.61824 88.08448 3.9936 15.03232 15.85152 26.70592 30.96576 30.47424l44.29824 11.0592L940.19584 564.89984zM512 297.90208c-118.25152 0-214.1184 95.88736-214.1184 214.09792 0 118.25152 95.8464 214.1184 214.1184 214.1184S726.1184 630.25152 726.1184 512C726.1184 393.78944 630.25152 297.90208 512 297.90208zM512 683.27424c-94.59712 0-171.29472-76.67712-171.29472-171.27424s76.6976-171.27424 171.29472-171.27424c94.59712 0 171.27424 76.67712 171.27424 171.27424S606.59712 683.27424 512 683.27424z" p-id="16043" fill="#bfbfbf"></path></svg>